<svg width="18" height="18" viewBox="0 0 18 18" fill="none" xmlns="http://www.w3.org/2000/svg">
<g clip-path="url(#clip0_529_848)">
<path d="M0 15.6387C0 11.2109 0 6.78261 0 2.35477C0.0118885 2.31031 0.0268592 2.26674 0.0347848 2.22184C0.195059 1.33583 0.671039 0.67606 1.47902 0.280371C1.75157 0.147008 2.06199 0.0911096 2.35524 0C6.7848 0 11.2148 0 15.6444 0C15.6717 0.0101233 15.6981 0.0246473 15.7258 0.0294888C17.0978 0.259684 17.9987 1.31691 17.9992 2.70732C18.0005 6.90056 18.0005 11.0942 17.9974 15.2875C17.9974 15.4908 17.9811 15.6986 17.938 15.8971C17.6663 17.144 16.6227 17.9864 15.3401 17.9922C13.9809 17.9979 12.6216 17.9935 11.2624 17.9935H11.1197V11.6299H13.7814C13.958 10.5722 14.1314 9.52954 14.3089 8.46659H11.1223V6.32178H14.2974V3.16375C14.2349 3.16375 14.183 3.16375 14.1314 3.16375C13.1473 3.16375 12.1628 3.16199 11.1787 3.16375C9.3329 3.16815 7.94987 4.55328 7.94547 6.401C7.94415 7.02777 7.94547 7.65453 7.94547 8.28085C7.94547 8.34203 7.94547 8.40321 7.94547 8.47716H5.84869V11.6365H7.93534V17.9812C7.90892 17.9864 7.89219 17.9922 7.87546 17.9922C6.08866 17.9917 4.30099 18.0168 2.51463 17.9794C1.50455 17.9583 0.749415 17.4336 0.289727 16.5331C0.148826 16.2576 0.0942272 15.938 0.000440324 15.6387H0Z" fill="white"/>
</g>
<defs>
<clipPath id="clip0_529_848">
<rect width="18" height="18" fill="white"/>
</clipPath>
</defs>
</svg>
