<svg width="18" height="18" viewBox="0 0 18 18" fill="none" xmlns="http://www.w3.org/2000/svg">
<g clip-path="url(#clip0_529_838)">
<path d="M13.4306 17.9996H4.5726C4.19578 17.9217 3.80751 17.8799 3.44433 17.7602C1.35376 17.0701 0.0146292 15.2369 0.00582493 13.044C-0.00474019 10.3504 0.00186301 7.65678 0.00406408 4.96316C0.00450429 4.11032 0.191155 3.29665 0.622564 2.55999C1.60204 0.88731 3.07411 0.021708 5.0137 0.00938622C7.67259 -0.00733613 10.3315 0.00190517 12.9904 0.00938622C13.3223 0.0102663 13.6621 0.028749 13.9848 0.100479C16.001 0.548902 17.2939 1.77579 17.8512 3.76532C17.9247 4.02803 17.9516 4.30395 18 4.57415V13.4308C17.9705 13.6148 17.9511 13.8009 17.9098 13.9822C17.4533 15.9999 16.2295 17.2937 14.2366 17.8517C13.9747 17.9252 13.6991 17.9516 13.4301 18L13.4306 17.9996ZM9.00996 4.07028C6.30572 4.05488 4.10201 6.24682 4.069 8.98533C4.03642 11.6834 6.26038 13.9184 8.99367 13.9343C11.6979 13.9501 13.9016 11.7577 13.9346 9.01922C13.9672 6.32119 11.7432 4.08612 9.00996 4.07028ZM14.252 2.27703C13.4429 2.25722 12.7588 2.92172 12.7333 3.75255C12.7086 4.55127 13.383 5.24304 14.2137 5.27121C15.0145 5.29805 15.7065 4.62212 15.7281 3.79128C15.7492 2.97804 15.0858 2.29727 14.252 2.27703Z" fill="white"/>
<path d="M8.99642 5.13354C11.1328 5.12914 12.8743 6.86914 12.8716 9.00564C12.869 11.1377 11.1407 12.8667 9.00787 12.8711C6.87151 12.876 5.13002 11.1355 5.13267 8.99904C5.13531 6.86694 6.86359 5.13794 8.99686 5.13354H8.99642Z" fill="white"/>
<path d="M14.665 3.77968C14.6615 4.01424 14.4542 4.21359 14.2213 4.2061C13.9959 4.19906 13.7991 3.99708 13.7987 3.7722C13.7978 3.53765 13.9999 3.33874 14.2372 3.34006C14.4758 3.34138 14.669 3.53941 14.6655 3.77924L14.665 3.77968Z" fill="white"/>
</g>
<defs>
<clipPath id="clip0_529_838">
<rect width="18" height="18" fill="white"/>
</clipPath>
</defs>
</svg>
