<?xml version="1.0" encoding="UTF-8"?>
<svg width="1408px" height="343px" viewBox="0 0 1408 343" version="1.1" xmlns="http://www.w3.org/2000/svg" xmlns:xlink="http://www.w3.org/1999/xlink">
    <!-- Generator: Sketch 48.2 (47327) - http://www.bohemiancoding.com/sketch -->
    <title>Shape</title>
    <desc>Created with Sketch.</desc>
    <defs></defs>
    <g id="Desktop/Section/Image-with-text" stroke="none" stroke-width="1" fill="none" fill-rule="evenodd" transform="translate(-198.000000, -38.000000)">
        <g id="tca-logo" style="mix-blend-mode: multiply;" transform="translate(198.000000, 38.000000)" fill="#FAA61A" fill-rule="nonzero">
            <path d="M0,100.343387 L165.052013,100.343387 L76.2550336,424 L213.714765,424 L303.013423,100.343387 L465.557047,100.343387 L511.711409,41.8097448 L406.35906,424 L831.781879,424 L859.374161,323.656613 L571.411074,323.656613 L633.11745,99.8515081 L968.739933,99.8515081 L1015.39597,41.3178654 L910.043624,423.508121 L1047.50336,423.508121 L1079.61074,306.440835 L1272.25503,306.440835 L1240.14765,423.508121 L1377.60738,423.508121 L1495,0 L27.5922819,0 L0,100.343387 Z M1300.34899,206.589327 L1137.80537,206.589327 L1091.14933,265.12297 L1136.80201,99.8515081 L1329.44631,99.8515081 L1300.34899,206.589327 Z" id="Shape"></path>
        </g>
    </g>
</svg>