<?xml version="1.0" encoding="UTF-8"?>
<svg width="131px" height="38px" viewBox="0 0 131 38" version="1.1" xmlns="http://www.w3.org/2000/svg" xmlns:xlink="http://www.w3.org/1999/xlink">
    <!-- Generator: Sketch 48.2 (47327) - http://www.bohemiancoding.com/sketch -->
    <title>Shape</title>
    <desc>Created with Sketch.</desc>
    <defs></defs>
    <g id="Desktop/Navigation/Left-logo" stroke="none" stroke-width="1" fill="none" fill-rule="evenodd" transform="translate(-739.000000, -24.000000)">
        <g id="Navigation/Left-logo" fill="#111111" fill-rule="nonzero">
            <g id="tca-logo" transform="translate(739.000000, 24.000000)">
                <path d="M0,8.99303944 L14.4627517,8.99303944 L6.68187919,38 L18.7268456,38 L26.5516779,8.99303944 L40.7946309,8.99303944 L44.8389262,3.74709977 L35.6073826,38 L72.8852349,38 L75.3030201,29.0069606 L50.0701342,29.0069606 L55.4771812,8.94895592 L84.8862416,8.94895592 L88.9744966,3.70301624 L79.742953,37.9559165 L91.7879195,37.9559165 L94.6013423,27.4640371 L111.481879,27.4640371 L108.668456,37.9559165 L120.713423,37.9559165 L131,0 L2.41778523,0 L0,8.99303944 Z M113.943624,18.5150812 L99.7006711,18.5150812 L95.6124161,23.7610209 L99.6127517,8.94895592 L116.493289,8.94895592 L113.943624,18.5150812 Z" id="Shape"></path>
            </g>
        </g>
    </g>
</svg>