<svg xmlns="http://www.w3.org/2000/svg" width="150" height="27" viewBox="0 0 150 27">
  <metadata><?xpacket begin="﻿" id="W5M0MpCehiHzreSzNTczkc9d"?>
<x:xmpmeta xmlns:x="adobe:ns:meta/" x:xmptk="Adobe XMP Core 5.6-c138 79.159824, 2016/09/14-01:09:01        ">
   <rdf:RDF xmlns:rdf="http://www.w3.org/1999/02/22-rdf-syntax-ns#">
      <rdf:Description rdf:about=""/>
   </rdf:RDF>
</x:xmpmeta>
                                                                                                    
                                                                                                    
                                                                                                    
                                                                                                    
                                                                                                    
                                                                                                    
                                                                                                    
                                                                                                    
                                                                                                    
                                                                                                    
                                                                                                    
                                                                                                    
                                                                                                    
                                                                                                    
                                                                                                    
                                                                                                    
                                                                                                    
                                                                                                    
                                                                                                    
                                                                                                    
                           
<?xpacket end="w"?></metadata>
<defs>
    <style>
      .cls-1 {
        fill-rule: evenodd;
      }
    </style>
  </defs>
  <path id="Frame" class="cls-1" d="M0.524,26.646H3.01V14.075H15.549V11.83H3.01V2.4H16.491V0.157H0.524v26.49ZM31.478,2.4h5.272a8.751,8.751,0,0,1,3.182.486,5.293,5.293,0,0,1,1.9,1.2,3.792,3.792,0,0,1,.922,1.534A5.3,5.3,0,0,1,43,7.116a5.3,5.3,0,0,1-.245,1.5,3.784,3.784,0,0,1-.922,1.534,5.276,5.276,0,0,1-1.9,1.2,8.737,8.737,0,0,1-3.182.486H31.478V2.4ZM28.992,26.646h2.485V14.075h4.632L43.6,26.646h2.824L38.67,13.925a14.288,14.288,0,0,0,2.3-.524,6.978,6.978,0,0,0,2.2-1.141,6.106,6.106,0,0,0,1.657-2,6.644,6.644,0,0,0,.659-3.143A6.809,6.809,0,0,0,44.921,4.2,6.224,6.224,0,0,0,43.49,2.215a6.093,6.093,0,0,0-1.958-1.2,12.132,12.132,0,0,0-2.146-.6A14.827,14.827,0,0,0,37.427.194Q36.523,0.157,36,.157h-7v26.49Zm26.4,0h2.6L61,19.613H75.12l2.9,7.034h2.787L69.585,0.157H67.024Zm18.828-9.279H61.978L68.191,2.851Zm17.7,9.279H94.4V3.3h0.075l10.318,23.347h1.092L116.052,3.3h0.075V26.646h2.485V0.157h-3.539l-9.716,22.224L95.642,0.157H91.914v26.49Zm41.271,0h16.907V24.4H135.67V14.075h12.954V11.83H135.67V2.4h13.82V0.157H133.185v26.49Z"/>
</svg>
