<svg width="370.9" height="110.3" xmlns="http://www.w3.org/2000/svg">

 <g>
  <title>background</title>
  <rect fill="none" id="canvas_background" height="112.3" width="372.9" y="-1" x="-1"/>
 </g>
 <g>
  <title>Layer 1</title>
  <path fill="#ffffff" id="svg_1" d="m281.4,27.4l47.5,0l-7.2,26.8l-40,0l-11.5,14.7l11.2,-41.5zm-269,-25.2c-2.6,0 -4.8,1.7 -5.5,4.2l-5.6,20.9l0,0.1l40.7,0l-22,81.4l33.9,0l21.9,-81.4l40,0l11.4,-14.7l-25.9,96.1l104.8,0l6.8,-25.2l-70.9,0l15.2,-56.2l82.8,0l11.5,-14.7l-25.9,96.1l33.9,0l7.9,-29.4l47.5,0l-7.9,29.4l29.6,0c2.6,0 4.8,-1.7 5.5,-4.2l27.6,-102.4l-357.3,0z"/>
 </g>
</svg>