<svg width="171" height="23" viewBox="0 0 171 23" fill="none" xmlns="http://www.w3.org/2000/svg">
<path fill-rule="evenodd" clip-rule="evenodd" d="M171 10.5783C171 9.33046 170.487 8.13933 169.575 7.23181C168.036 5.70037 165.585 4.82121 162.849 4.82121C160.17 4.82121 158.203 5.67201 156.893 6.94821C155.753 5.61529 154.042 4.79285 151.962 4.79285C150.85 4.79285 149.454 5.01973 148.057 5.84217C147.231 5.30333 146.205 4.99137 145.065 4.99137C143.925 4.99137 143.013 5.21825 142.329 5.61529C141.503 5.18989 140.505 4.99137 139.707 4.99137C138.368 4.99137 137.313 5.30333 136.486 5.75709C135.404 5.13317 134.15 4.79285 132.81 4.79285C130.559 4.79285 128.478 5.72873 126.854 7.26017C125.6 5.81381 123.548 4.79285 120.526 4.79285C118.332 4.79285 116.366 5.38841 114.741 6.43773C114.2 3.82861 111.92 1.418 106.79 1.418H101.745C99.522 1.418 97.755 2.38224 96.7575 4.08385L96.1305 3.26141C95.019 1.78668 92.853 1.67324 92.226 1.67324C89.433 1.67324 87.552 2.89272 86.5545 5.30333C86.0415 5.44513 85.5285 5.72873 85.0155 6.15413C83.9325 5.30333 82.536 4.79285 80.94 4.79285C79.8285 4.79285 78.432 5.01973 77.0355 5.84217C76.209 5.30333 75.183 4.99137 74.0145 4.99137C72.504 4.99137 71.3925 5.41677 70.68 6.15413C69.426 5.33169 67.773 4.79285 65.607 4.79285C64.068 4.79285 62.6145 5.10481 61.332 5.64365V5.58693C61.731 3.65845 61.104 2.4106 60.534 1.67324C59.907 0.907522 58.7385 0 56.601 0H56.145C54.3495 0 52.041 0.765721 51.243 4.42417L51.129 4.99137C50.502 4.82121 49.8465 4.73613 49.1625 4.73613C47.31 4.73613 45.6 5.36005 44.175 6.46609C43.5195 5.72873 42.3795 4.93465 40.356 4.93465H39.8715C38.6745 4.93465 37.2495 5.27497 36.2235 6.55117C35.5965 5.81381 34.428 4.93465 32.319 4.93465H31.8345C30.9795 4.93465 30.039 5.10481 29.184 5.67201C29.1092 5.6348 29.0453 5.59216 28.9804 5.54885C28.8969 5.49313 28.8117 5.43628 28.6995 5.38841L28.9845 4.28237L28.158 3.17633C27.075 1.72996 24.909 1.61652 24.2535 1.61652C22.0875 1.61652 20.463 2.35388 19.38 3.85697C19.2945 3.74353 19.209 3.63009 19.1235 3.54501C17.499 1.90012 14.934 1.04932 11.685 1.04932C5.1015 1.04932 2.1375 5.16153 2.1375 9.24538C2.1375 10.2947 2.337 11.1739 2.6505 11.9396C1.2255 12.8471 0 14.5771 0 16.4772C0 17.8952 0.57 19.2281 1.7385 20.4476C2.9355 21.6104 5.244 22.9716 9.462 22.9716C13.11 22.9716 15.5895 21.8656 17.157 20.3058C17.271 20.476 17.385 20.6178 17.499 20.7596C18.3255 21.7805 19.9215 22.9716 22.8855 22.9716C25.365 22.9716 26.8185 22.0925 27.645 21.3268C28.5285 22.1492 29.8965 22.9433 32.0625 22.9433C33.1455 22.9433 34.485 22.7164 35.853 21.979C36.765 22.603 37.962 22.9149 39.3015 22.9149C41.04 22.9149 42.351 22.3194 43.2345 21.4686C44.4315 22.3761 45.942 22.9149 47.6235 22.9149C48.8775 22.9149 50.0745 22.603 51.129 22.0074C52.041 22.603 53.181 22.9149 54.492 22.9149C56.373 22.9149 57.7125 22.2343 58.5675 21.3551C60.0495 22.3477 61.9875 22.9433 64.2675 22.9433C66.2625 22.9433 68.001 22.5179 69.369 21.7238C70.224 22.3761 71.3355 22.7448 72.6465 22.7448H73.131C74.385 22.7448 75.867 22.3761 76.9215 20.9297C77.805 22.0641 79.2585 22.9149 81.567 22.9149C83.676 22.9149 85.0155 22.0925 85.728 21.3835L85.899 21.2133C86.811 22.0925 88.35 22.9716 90.858 22.9716C93.1095 22.9716 94.5345 22.2343 95.3895 21.5253C96.1305 22.1208 97.2705 22.6313 98.952 22.6313H104.196C108.215 22.6313 110.637 21.6104 112.147 20.2491C113.715 21.9507 116.109 22.9433 119.159 22.9433C121.838 22.9433 124.118 22.1776 125.542 20.7596C126.825 22.1208 128.62 22.9149 130.701 22.9149C132.04 22.9149 133.294 22.5746 134.406 21.979C135.346 22.5746 136.486 22.9149 137.855 22.9149C139.165 22.9149 140.22 22.5746 141.018 22.0925C141.787 22.4895 142.671 22.7448 143.697 22.7448H144.182C145.436 22.7448 146.917 22.3761 147.972 20.9297C148.855 22.0925 150.337 22.9149 152.617 22.9149C154.47 22.9149 155.695 22.2626 156.465 21.6387C157.947 22.4328 159.799 22.8866 161.965 22.8866C167.951 22.8866 170.088 19.2281 170.088 16.0801C170.088 15.2577 169.946 14.5487 169.689 13.9248C170.43 13.1307 171 11.9679 171 10.5783ZM15.9885 9.84094C14.9625 8.47965 13.281 7.54377 11.628 7.54377C10.374 7.54377 9.747 8.08261 9.747 8.79161C9.747 9.43155 10.5432 9.71494 11.6865 10.1219C11.9112 10.2018 12.1494 10.2866 12.3975 10.3798C14.478 11.1455 16.644 12.1948 16.644 14.7472C16.644 17.8668 14.4495 20.2774 9.462 20.2774C6.6405 20.2774 4.731 19.5401 3.6765 18.5191C3.078 17.9236 2.7645 17.2429 2.7645 16.5339C2.7645 15.0592 4.4175 14.0666 4.56 14.2084C5.586 15.4846 7.581 16.5623 9.4335 16.5623C10.6875 16.5623 11.2575 16.1085 11.2575 15.2577C11.2575 14.6384 10.4746 14.3653 9.38378 13.9848L9.38355 13.9847C9.22567 13.9296 9.06134 13.8723 8.892 13.8113C7.0395 13.1023 4.9305 12.0247 4.9305 9.3021C4.9305 6.49445 6.9255 3.85697 11.7135 3.85697C14.364 3.85697 16.188 4.53761 17.1855 5.53021C17.6985 6.06905 17.955 6.66461 17.955 7.34525C17.955 8.99014 16.131 9.98274 15.9885 9.84094ZM27.816 10.8903C27.5025 11.1739 27.1605 11.344 26.1915 11.344H24.5385L23.712 15.2861C23.484 16.307 23.883 16.7608 24.5955 16.7608C25.1085 16.7608 25.6215 16.5055 25.9635 16.2219C26.049 16.1369 26.6475 16.5906 26.6475 17.4698C26.6475 18.1788 26.391 18.746 25.878 19.2281C25.251 19.8804 24.225 20.2207 22.8855 20.2207C19.779 20.2207 18.4965 18.434 19.1235 15.5129L20.007 11.344H19.7505C18.7245 11.344 18.126 10.8335 18.126 10.0678C18.126 9.67078 18.297 8.73489 18.753 8.25277C19.0665 7.96917 19.4085 7.79901 20.3775 7.79901H20.805L20.8905 7.43033C21.318 5.30333 22.23 4.36745 24.3105 4.36745C25.3365 4.36745 26.0775 4.76449 26.0205 4.93465L25.365 7.82737H26.733C27.8445 7.82737 28.443 8.33785 28.443 9.10357C28.443 9.47226 28.272 10.4365 27.816 10.8903ZM42.408 9.95438L40.983 16.5906C40.6695 18.037 40.8975 18.5758 41.7525 18.8594C41.8095 18.8878 41.4105 20.164 39.3015 20.164C37.392 20.164 36.48 19.2281 36.3945 17.7817C35.34 19.2565 33.9435 20.1924 32.0625 20.1924C29.184 20.1924 27.9585 18.0654 28.671 14.6621L29.6685 9.95438C30.039 8.25277 30.6375 7.71393 31.8345 7.71393H32.319C33.573 7.71393 34.713 8.22441 34.3425 9.95438L33.402 14.18C33.0885 15.4846 33.5445 16.3921 34.713 16.3921C35.511 16.3921 36.024 16.0518 36.537 15.3428L37.7055 9.92602C38.0475 8.22441 38.646 7.68557 39.8715 7.68557H40.356C41.6385 7.71393 42.807 8.22441 42.408 9.95438ZM54.4635 20.164C52.5255 20.164 51.6705 19.1714 51.585 17.6967C50.8155 19.143 49.419 20.164 47.6235 20.164C44.973 20.164 43.0065 18.2639 43.0065 15.0875C43.0065 11.2306 45.4005 7.51541 49.1625 7.51541C50.673 7.51541 52.1835 8.16769 53.01 9.47226L53.979 4.96301C54.3495 3.28977 54.948 2.72256 56.145 2.72256H56.6295C57.8835 2.72256 59.0235 3.23305 58.653 4.96301L56.1735 16.5623C55.8315 18.0086 56.088 18.5475 56.943 18.8311C56.9715 18.8878 56.601 20.164 54.4635 20.164ZM64.3245 17.016C65.7495 17.016 66.8895 16.2787 67.5735 15.3995C67.602 15.3711 69.426 15.6264 69.426 17.0444C69.426 17.8668 69.1695 18.2922 68.6565 18.8027C67.8585 19.5968 66.3765 20.1924 64.239 20.1924C59.9355 20.1924 57.9975 17.9235 57.9975 14.889C57.9975 10.4932 61.389 7.51541 65.6355 7.51541C68.97 7.51541 70.7085 9.01849 70.7085 11.2873C70.7085 13.7546 69.1125 15.2861 63.7545 15.2861C63.156 15.2861 62.5005 15.2861 61.788 15.2293C61.9875 16.4205 62.8425 17.016 64.3245 17.016ZM84.36 18.5191C84.417 18.5191 83.961 20.164 81.567 20.164C79.5435 20.164 78.6885 19.2281 78.6885 17.7817C78.6885 17.0727 78.8595 16.3637 79.2585 14.9457C79.5435 13.8964 79.7145 13.1307 79.7145 12.7337C79.7145 11.8261 79.23 11.2873 78.2895 11.2873C77.4915 11.2873 76.9785 11.6276 76.4655 12.3366L75.297 17.725C74.955 19.4266 74.3565 19.9938 73.1595 19.9938H72.675C71.3925 19.9938 70.2525 19.455 70.6515 17.725L72.7035 7.99753C72.732 7.91245 73.302 7.71393 74.0715 7.71393C75.2685 7.71393 76.437 8.33785 76.5795 10.0111C77.634 8.50801 79.0305 7.54377 80.9685 7.54377C83.3055 7.54377 84.645 9.07522 84.645 11.3157C84.645 12.1665 84.3885 13.2441 83.961 14.8039C83.6475 15.9383 83.391 16.9026 83.391 17.3847C83.391 18.0653 83.7045 18.3773 84.36 18.5191ZM95.76 10.8903C95.4465 11.1739 95.1045 11.344 94.1355 11.344H92.4825L91.656 15.2861C91.428 16.307 91.827 16.7608 92.5395 16.7608C93.0525 16.7608 93.5655 16.5055 93.9075 16.2219C93.993 16.1369 94.5915 16.5906 94.5915 17.4698C94.5915 18.1788 94.335 18.746 93.822 19.2281C93.195 19.8804 92.169 20.2207 90.8295 20.2207C87.723 20.2207 86.4405 18.434 87.0675 15.5129L87.951 11.344H87.6945C86.6685 11.344 86.07 10.8335 86.07 10.0678C86.07 9.67078 86.241 8.73489 86.697 8.25277C87.0105 7.96917 87.3525 7.79901 88.3215 7.79901H88.749L88.806 7.43033C89.2335 5.30333 90.1455 4.36745 92.226 4.36745C93.252 4.36745 93.993 4.76449 93.936 4.93465L93.309 7.79901H94.677C95.7885 7.79901 96.387 8.30949 96.387 9.07522C96.387 9.47226 96.2445 10.4365 95.76 10.8903ZM111.549 14.889C111.549 17.8668 109.64 19.8804 104.196 19.8804H98.952C96.9855 19.8804 96.102 18.9162 96.558 16.7891L98.7525 6.55117C99.0945 4.84957 100.149 4.14057 101.745 4.14057H106.818C110.266 4.14057 112.119 5.36005 112.119 7.65721C112.119 9.64242 111.207 11.0037 108.728 11.656C110.608 12.1381 111.549 13.3292 111.549 14.889ZM118.674 15.2861C118.076 15.2861 117.42 15.2861 116.736 15.2293C116.879 16.3921 117.733 17.016 119.215 17.016C120.64 17.016 121.781 16.2787 122.465 15.3995C122.493 15.3711 124.317 15.6264 124.317 17.0444C124.317 17.8668 124.061 18.2922 123.548 18.8027C122.778 19.5968 121.268 20.1924 119.13 20.1924C114.826 20.1924 112.889 17.9235 112.889 14.889C112.889 10.4932 116.28 7.51541 120.526 7.51541C123.861 7.51541 125.6 9.01849 125.6 11.2873C125.628 13.783 124.032 15.2861 118.674 15.2861ZM139.536 16.5906C139.223 18.037 139.451 18.5758 140.305 18.8594C140.334 18.8878 139.964 20.164 137.826 20.164C135.859 20.164 135.005 19.143 134.919 17.6683C134.092 19.143 132.582 20.164 130.701 20.164C128.107 20.164 126.312 18.2922 126.312 15.3428C126.312 11.3724 128.962 7.51541 132.839 7.51541C134.378 7.51541 135.859 8.22441 136.544 9.64242C137.171 8.28113 138.168 7.71393 139.735 7.71393C140.647 7.71393 141.36 8.11097 141.36 8.28113L139.536 16.5906ZM155.353 18.5191C155.41 18.5191 154.954 20.164 152.561 20.164C150.537 20.164 149.682 19.2281 149.682 17.7817C149.682 17.0727 149.853 16.3637 150.252 14.9457C150.537 13.8964 150.708 13.1307 150.708 12.7337C150.708 11.8261 150.223 11.2873 149.283 11.2873C148.485 11.2873 147.972 11.6276 147.459 12.3366L146.29 17.725C145.949 19.4266 145.35 19.9938 144.124 19.9938H143.64C142.357 19.9938 141.217 19.455 141.617 17.725L143.669 7.99753C143.697 7.91245 144.267 7.71393 145.036 7.71393C146.233 7.71393 147.402 8.33785 147.544 10.0111C148.599 8.50801 149.995 7.54377 151.933 7.54377C154.27 7.54377 155.638 9.07522 155.638 11.3157C155.638 12.1665 155.411 13.2441 154.954 14.8039C154.641 15.9383 154.385 16.9026 154.385 17.3847C154.413 18.0653 154.726 18.3773 155.353 18.5191ZM166.697 12.6486C165.87 11.5993 164.559 10.7201 163.191 10.7201C162.393 10.7201 162.022 11.0321 162.022 11.4291C162.022 11.7978 162.45 11.9963 163.675 12.4784C165.613 13.2441 167.323 14.0666 167.323 16.1369C167.323 18.5475 165.499 20.164 161.965 20.164C159.486 20.164 157.747 19.4834 156.835 18.5758C156.408 18.1221 156.066 17.6116 156.066 17.016C156.066 15.7398 157.349 15.0025 157.434 15.1159C158.346 16.1085 159.942 17.016 161.338 17.016C162.108 17.016 162.45 16.7608 162.45 16.3354C162.45 15.9667 162.023 15.7682 161.139 15.4279L161.125 15.4221C159.448 14.7432 157.69 14.032 157.69 11.8261C157.69 9.33046 159.486 7.60049 162.878 7.60049C164.958 7.60049 166.668 8.22441 167.637 9.21702C168.008 9.5857 168.264 10.0395 168.264 10.6067C168.236 12.0247 166.782 12.7337 166.697 12.6486ZM103.313 7.60051H105.08C106.391 7.60051 107.046 7.96919 107.046 8.70655C107.046 9.89767 106.219 10.4932 104.681 10.4932H102.714L103.313 7.60051ZM120.299 10.4365C118.902 10.4365 117.791 11.3724 117.192 12.6486C117.464 12.6679 117.723 12.6609 117.96 12.6545C118.07 12.6515 118.175 12.6486 118.275 12.6486C121.011 12.6486 121.809 12.1381 121.809 11.4008C121.838 10.947 121.353 10.4365 120.299 10.4365ZM50.1885 11.0888C48.4215 11.0888 47.538 12.7053 47.538 14.4353C47.538 15.7115 48.279 16.5623 49.476 16.5623C50.673 16.5623 51.756 15.6547 52.0695 14.0949L52.383 12.6202C51.984 11.6843 51.3855 11.0888 50.1885 11.0888ZM130.787 14.5771C130.787 12.7904 131.87 11.0888 133.637 11.0888C134.72 11.0888 135.347 11.6843 135.717 12.6202L135.404 14.0666C135.062 15.598 133.95 16.5623 132.639 16.5623C131.556 16.5623 130.787 15.7682 130.787 14.5771ZM66.9465 11.4291C66.9465 10.947 66.462 10.4649 65.436 10.4649C64.0395 10.4649 62.928 11.4007 62.3295 12.6769C62.6016 12.6963 62.8605 12.6892 63.097 12.6828C63.2073 12.6798 63.3128 12.6769 63.4125 12.6769C66.1485 12.6486 66.9465 12.1381 66.9465 11.4291ZM102.116 13.3292H104.481C105.906 13.3292 106.618 13.6979 106.618 14.5203C106.618 15.8533 105.849 16.4205 104.025 16.4205H101.46L102.116 13.3292Z" fill="black"/>
</svg>
