<svg width="32" height="18" viewBox="0 0 32 18" fill="none" xmlns="http://www.w3.org/2000/svg">
<path fill-rule="evenodd" clip-rule="evenodd" d="M25.385 0.284103C31.517 0.284103 32 3.95716 32 5.09357C32 6.29087 31.685 7.69109 30.572 8.78692C31.202 9.55806 31.538 10.5118 31.538 11.5671C31.538 13.8602 30.425 17.6956 23.033 17.6956H18.203C16.733 17.6956 15.62 17.2694 14.906 16.3968C14.822 16.2954 14.738 16.1736 14.675 16.0722C13.352 17.2289 11.315 18 8.396 18C4.784 18 2.852 16.8839 1.865 15.9504L1.823 15.9098C0.962 15.0372 0.5 14.0225 0.5 12.9673C0.5 11.1815 1.97 9.70011 3.23 9.29425C2.768 8.5637 2.474 7.65051 2.474 6.53439C2.474 3.28749 4.931 0 10.433 0C13.184 0 15.347 0.689966 16.691 1.98873L16.712 2.00902C16.775 2.0699 16.838 2.13078 16.901 2.21195C17.678 0.97407 19.001 0.284103 20.744 0.284103H25.385ZM10.391 4.99211C11.882 4.99211 13.436 5.82413 14.381 7.04171C14.486 7.18377 16.166 6.29087 16.145 4.7283C16.145 4.1398 15.893 3.59188 15.431 3.12514C14.507 2.23224 12.827 1.62345 10.412 1.62345C6.044 1.62345 4.196 3.97745 4.196 6.47351C4.196 8.90868 6.128 9.86246 7.829 10.4915C7.96058 10.5368 8.08883 10.58 8.213 10.6218C9.25805 10.9738 10.013 11.228 10.013 11.7903C10.013 12.5412 9.467 12.947 8.333 12.947C6.653 12.947 4.826 11.9729 3.881 10.8365C3.776 10.7148 2.243 11.6077 2.243 12.9267C2.243 13.5558 2.537 14.1646 3.083 14.7125C4.049 15.6257 5.792 16.2751 8.396 16.2751C12.974 16.2751 14.99 14.1443 14.99 11.3641C14.99 9.11161 12.995 8.15784 11.084 7.48816C10.8829 7.41639 10.6885 7.34991 10.5034 7.28658C9.43234 6.9201 8.669 6.65893 8.669 6.08794C8.669 5.45885 9.257 4.99211 10.391 4.99211ZM29.753 11.5468C29.753 10.1466 28.871 9.09132 27.128 8.64487C29.417 8.09696 30.257 6.87937 30.236 5.07328C30.236 3.02367 28.535 1.94814 25.364 1.94814H20.723C19.274 1.94814 18.308 2.57723 17.993 4.09921L15.977 13.2311C15.557 15.1184 16.397 15.991 18.182 15.991H23.012C28.01 15.991 29.753 14.2052 29.753 11.5468ZM23.81 5.05299H22.193L21.626 7.63022H23.432C24.839 7.63022 25.616 7.1026 25.616 6.04736C25.616 5.37768 25.007 5.05299 23.81 5.05299ZM23.285 10.1466H21.101L20.492 12.9064H22.844C24.503 12.9064 25.217 12.3991 25.217 11.2221C25.238 10.4915 24.587 10.1466 23.285 10.1466Z"
      fill="white"/>
</svg>
